<?xml version="1.0" encoding="UTF-8" standalone="no"?>
<svg
   version="1.1"
   id="svg4094"
   viewBox="0 0 368.15988 330.92285"
   height="93.393784mm"
   width="103.9029mm"
   xmlns:xlink="http://www.w3.org/1999/xlink"
   xmlns="http://www.w3.org/2000/svg"
   xmlns:svg="http://www.w3.org/2000/svg"
   xmlns:rdf="http://www.w3.org/1999/02/22-rdf-syntax-ns#"
   xmlns:cc="http://creativecommons.org/ns#"
   xmlns:dc="http://purl.org/dc/elements/1.1/">
  <defs
     id="defs4096">
    <linearGradient
       y2="-144.95"
       y1="-140.7"
       x2="1004.4"
       gradientUnits="userSpaceOnUse"
       xlink:href="#linearGradient9119"
       x1="982.83002"
       id="linearGradient9599" />
    <linearGradient
       id="linearGradient9119">
      <stop
         offset="0"
         stop-color="#0e0e0e"
         id="stop9121" />
      <stop
         offset=".5"
         stop-color="#838383"
         id="stop9127" />
      <stop
         offset="1"
         stop-color="#0e0e0e"
         id="stop9123" />
    </linearGradient>
    <linearGradient
       y2="-465.56"
       y1="-426.37"
       x2="831.5"
       gradientUnits="userSpaceOnUse"
       xlink:href="#linearGradient9119"
       x1="831.5"
       id="linearGradient9596" />
    <pattern
       patternTransform="matrix(.86603 -.5 .5 .86603 1230 510.36)"
       xlink:href="#pattern7906"
       id="pattern9592" />
    <pattern
       patternTransform="matrix(.86603 -.5 .5 .86603 1230 510.36)"
       xlink:href="#pattern8980"
       id="pattern7906" />
    <pattern
       height="2"
       patternTransform="translate(1230 510.36)"
       patternUnits="userSpaceOnUse"
       width="4"
       id="pattern8980">
      <g
         transform="translate(-1230 -510.36)"
         id="g7532">
        <path
           d="m1233.9 511.36h-1.9v-0.9z"
           fill="#b1a2b7"
           id="path10769" />
        <path
           d="m1233.9 511.36h-1.9v0.9z"
           fill="#312834"
           id="path10802" />
        <path
           d="m1230.1 511.36h1.9v-0.9z"
           fill="#d1c8d4"
           id="path10804" />
        <path
           d="m1230.1 511.36h1.9v0.9z"
           fill="#65536a"
           id="path10806" />
        <path
           d="m1232.1 510.36h1.9v0.9z"
           fill="#65536a"
           id="path10808" />
        <path
           d="m1231.9 510.36h-1.9v0.9z"
           fill="#312834"
           id="path10810" />
        <path
           d="m1231.9 512.36h-1.9v-0.9z"
           fill="#b1a2b7"
           id="path10812" />
        <path
           d="m1232.1 512.36h1.9v-0.9z"
           fill="#d1c8d4"
           id="path10814" />
      </g>
    </pattern>
    <linearGradient
       y2="-146.13"
       y1="-150.3"
       x2="811.40997"
       gradientUnits="userSpaceOnUse"
       xlink:href="#linearGradient9119"
       x1="790.41998"
       id="linearGradient9477" />
    <linearGradient
       y2="-760.14001"
       y1="-760.14001"
       x2="911.5"
       gradientUnits="userSpaceOnUse"
       xlink:href="#linearGradient9119"
       x1="882.34003"
       id="linearGradient9464" />
    <linearGradient
       y2="-705.39001"
       x2="911.5"
       gradientTransform="matrix(1,0,0,1.2893,0,206.43)"
       y1="-705.39001"
       gradientUnits="userSpaceOnUse"
       xlink:href="#linearGradient9119"
       x1="882.34003"
       id="linearGradient9461" />
    <linearGradient
       y2="-735.62"
       y1="-735.62"
       x2="911"
       gradientUnits="userSpaceOnUse"
       xlink:href="#linearGradient9119"
       x1="883"
       id="linearGradient9458" />
    <radialGradient
       r="63.507"
       gradientTransform="matrix(0.87222,-0.87222,0.63089,0.63089,515.1,549.91)"
       cx="899.56"
       cy="-631.59998"
       gradientUnits="userSpaceOnUse"
       xlink:href="#linearGradient9169"
       id="radialGradient9455" />
    <linearGradient
       id="linearGradient9169">
      <stop
         offset="0"
         stop-color="#0e0e0e"
         id="stop9171" />
      <stop
         offset=".91753"
         stop-color="#838383"
         id="stop9173" />
      <stop
         offset="1"
         stop-color="#0e0e0e"
         id="stop9175" />
    </linearGradient>
    <linearGradient
       y2="-413.10999"
       y1="-479.31"
       x2="780"
       gradientUnits="userSpaceOnUse"
       xlink:href="#linearGradient9119"
       x1="780"
       id="linearGradient9452" />
    <radialGradient
       r="22"
       cy="437.35999"
       gradientUnits="userSpaceOnUse"
       cx="1343.5"
       id="radialGradient9143">
      <stop
         offset="0"
         stop-color="#838383"
         id="stop9147" />
      <stop
         offset=".8679"
         stop-color="#838383"
         id="stop9149" />
      <stop
         offset="1"
         stop-color="#0e0e0e"
         id="stop9151" />
    </radialGradient>
    <radialGradient
       r="16.25"
       gradientTransform="matrix(1.4031,-0.017753,0.011292,0.89248,-246.87,-36.801)"
       cx="619.78003"
       cy="-446.03"
       gradientUnits="userSpaceOnUse"
       xlink:href="#linearGradient9187"
       id="radialGradient9448" />
    <linearGradient
       id="linearGradient9187">
      <stop
         offset="0"
         stop-color="#838383"
         id="stop9189" />
      <stop
         offset=".39403"
         stop-color="#838383"
         id="stop9191" />
      <stop
         offset="1"
         stop-color="#0e0e0e"
         id="stop9193" />
    </linearGradient>
    <linearGradient
       y2="-454.38"
       y1="-438.70001"
       x2="926.23999"
       gradientUnits="userSpaceOnUse"
       xlink:href="#linearGradient9119"
       x1="926.23999"
       id="linearGradient9445" />
    <filter
       height="1.2164423"
       x="-0.53453943"
       y="-0.10822115"
       width="2.0690789"
       id="filter9269"
       style="color-interpolation-filters:sRGB">
      <feGaussianBlur
         stdDeviation="1.9840545"
         id="feGaussianBlur9271" />
    </filter>
    <filter
       height="1.3427285"
       x="-0.12417072"
       y="-0.17136425"
       width="1.2483414"
       id="filter9298"
       style="color-interpolation-filters:sRGB">
      <feGaussianBlur
         stdDeviation="1.5569871"
         id="feGaussianBlur9300" />
    </filter>
    <pattern
       patternTransform="matrix(.86603 -.5 .5 .86603 1230 510.36)"
       xlink:href="#pattern7904"
       id="pattern9439" />
    <pattern
       patternTransform="matrix(.86603 -.5 .5 .86603 1230 510.36)"
       xlink:href="#pattern8980"
       id="pattern7904" />
    <pattern
       height="2"
       patternTransform="translate(1230 510.36)"
       patternUnits="userSpaceOnUse"
       width="4"
       id="pattern4210">
      <g
         transform="translate(-1230 -510.36)"
         id="g4212">
        <path
           d="m1233.9 511.36h-1.9v-0.9z"
           fill="#b1a2b7"
           id="path4214" />
        <path
           d="m1233.9 511.36h-1.9v0.9z"
           fill="#312834"
           id="path4216" />
        <path
           d="m1230.1 511.36h1.9v-0.9z"
           fill="#d1c8d4"
           id="path4218" />
        <path
           d="m1230.1 511.36h1.9v0.9z"
           fill="#65536a"
           id="path4220" />
        <path
           d="m1232.1 510.36h1.9v0.9z"
           fill="#65536a"
           id="path4222" />
        <path
           d="m1231.9 510.36h-1.9v0.9z"
           fill="#312834"
           id="path4224" />
        <path
           d="m1231.9 512.36h-1.9v-0.9z"
           fill="#b1a2b7"
           id="path4226" />
        <path
           d="m1232.1 512.36h1.9v-0.9z"
           fill="#d1c8d4"
           id="path4228" />
      </g>
    </pattern>
    <linearGradient
       y2="-482.64001"
       y1="-407.64001"
       x2="790"
       gradientUnits="userSpaceOnUse"
       xlink:href="#linearGradient9119"
       x1="790"
       id="linearGradient9436" />
    <linearGradient
       y2="-789.89001"
       y1="-789.89001"
       x2="911.91998"
       gradientUnits="userSpaceOnUse"
       xlink:href="#linearGradient9119"
       x1="881.91998"
       id="linearGradient9433" />
  </defs>
  <metadata
     id="metadata4099">
    <rdf:RDF>
      <cc:Work
         rdf:about="">
        <dc:format>image/svg+xml</dc:format>
        <dc:type
           rdf:resource="http://purl.org/dc/dcmitype/StillImage" />
      </cc:Work>
    </rdf:RDF>
  </metadata>
  <g
     transform="translate(-158.7772,-69.757916)"
     id="layer1">
    <g
       id="g3937"
       transform="translate(158.78708,180.29688)">
      <g
         id="layer1-3"
         transform="translate(-244.5,-307.36)">
        <g
           id="g3628"
           transform="translate(483.56,186.84)"
           style="fill-rule:evenodd;stroke:#000000;stroke-width:1px">
          <path
             id="path3254"
             d="m -234.8,221.45 -3.56,-16.21 0.39,-3.56 2.77,-0.79 258.6,-58.13 1.586,-3.16 82.244,-18.58 4.35,3.16 -4.35,3.95 c 0,0 -3.16,2.38 -3.56,7.12 -0.39,4.75 4.75,11.07 4.75,11.07 0,0 6.33,8.31 7.91,11.87 1.58,3.55 3.56,17.79 3.56,17.79 l 0.79,5.14 2.76,3.16 3.17,2.38 1.98,1.97 0,2.38 -1.98,1.97 -43.103,10.68 -4.349,0 -3.954,-0.79 -0.396,9.88 -309.61,8.7 z"
             style="fill:#010101" />
          <path
             id="path3256"
             d="m 85.195,191.24 -7.212,-12.07 -5.801,-11.6 -3.92,-10.04 -4.076,-9.88 c 0,0 -1.724,-4.54 0.627,-6.42 2.352,-1.88 4.861,-2.36 4.861,-2.36 l 5.487,-1.09 c 0,0 1.724,-0.63 2.665,0.78 0.941,1.41 2.665,3.14 2.822,5.49 0.157,2.35 -0.313,3.45 0.784,5.8 1.098,2.35 4.39,4.08 5.331,6.11 0.94,2.04 2.038,8.31 2.038,8.31 l 2.038,2.04 c 0,0 1.411,0.47 2.822,2.82 1.411,2.36 1.882,5.33 1.882,5.33 0,0 0.627,1.57 1.567,2.51 0.941,0.94 5.02,2.82 5.02,2.82 0,0 2.19,1.57 2.19,4.08 0,2.51 0.16,4.55 -0.78,5.02 -0.94,0.47 -10.82,2.82 -10.82,2.82 l -3.606,0.78 -1.567,-0.31 -2.352,-0.94 z"
             style="fill:#fefefe" />
          <path
             id="path3258"
             d="m 21.698,143.26 2.666,13.17 3.135,10.2 3.136,7.05 9.407,7.68 19.441,12.7 15.521,8.63 -0.157,10.19 -310.12,8.46 -3.29,-16.15 0.47,-3.45 259.79,-58.48 z"
             style="fill:#b2b2b2" />
        </g>
      </g>
      <g
         id="g7881"
         transform="matrix(0.3,0,0,0.3,-77.27656,134.60304)">
        <g
           id="g9602">
          <rect
             style="fill:#d6d6d6"
             id="rect7928"
             height="54.5"
             width="30"
             y="-817.14001"
             x="881.91998" />
          <path
             style="fill:url(#linearGradient9599)"
             id="path7887"
             d="m 918.01,-611.53 -21.094,49.343 152.72,746.44 26.56,101.64 -13.206,-105.01 -142.7,-792.55 c -0.42841,-2.3794 -1.4161,-1.8783 -2.2769,0.13524 z" />
          <path
             style="fill:url(#linearGradient9596)"
             id="path7895"
             d="m 832,-465.62 0,39 8.9375,-3.9062 0,-0.0313 c 0.0427,0.012 0.0812,0.0238 0.125,0.0313 2.3161,0.39553 5.3229,-5.7593 6.6875,-13.75 1.3373,-7.8311 0.6154,-14.489 -1.5938,-15.125 -0.004,-10e-4 0.004,-0.0302 0,-0.0313 l -14.16,-6.18 z" />
          <path
             style="fill:#262626"
             id="path7899"
             d="m 801.91,-479.12 0,66 3.0938,-13.5 c 0,0 7,-5 13.5,-5 6.5,0 13.5,5 13.5,5 l 0,-39 c 0,0 -7,5 -13.5,5 -6.5,0 -13.5,-5 -13.5,-5 l -3.0938,-13.5 z" />
          <rect
             style="fill:url(#pattern9592)"
             id="rect7905"
             height="54.5"
             width="30"
             y="-817.14001"
             x="881.91998" />
          <path
             style="fill:#808080"
             id="path7913"
             d="m 639.21,-437.14 1.325,-2 -1.2248,-14 -1.675,-2 z" />
          <path
             style="fill:#0e0e0e"
             id="path7915"
             d="m 639.21,-437.14 -1.5748,-18 -1.325,2 1.2248,14 z" />
          <path
             style="fill:#808080"
             id="path7919"
             d="m 642.21,-437.14 1.325,-2 -1.2248,-14 -1.675,-2 z" />
          <path
             style="fill:#0e0e0e"
             id="path7921"
             d="m 642.21,-437.14 -1.5748,-18 -1.325,2 1.2248,14 z" />
          <path
             style="fill:#808080"
             id="path7925"
             d="m 645.21,-437.14 1.325,-2 -1.2248,-14 -1.675,-2 z" />
          <path
             style="fill:#0e0e0e"
             id="path7927"
             d="m 645.21,-437.14 -1.5748,-18 -1.325,2 1.2248,14 z" />
          <path
             style="fill:#808080"
             id="path7931"
             d="m 648.21,-437.14 1.325,-2 -1.2248,-14 -1.675,-2 z" />
          <path
             style="fill:#0e0e0e"
             id="path7933"
             d="m 648.21,-437.14 -1.5748,-18 -1.325,2 1.2248,14 z" />
          <path
             style="fill:#808080"
             id="path7937"
             d="m 651.21,-437.14 1.325,-2 -1.2248,-14 -1.675,-2 z" />
          <path
             style="fill:#0e0e0e"
             id="path7939"
             d="m 651.21,-437.14 -1.5748,-18 -1.325,2 1.2248,14 z" />
          <path
             style="fill:#808080"
             id="path7943"
             d="m 654.21,-437.14 1.325,-2 -1.2248,-14 -1.675,-2 z" />
          <path
             style="fill:#0e0e0e"
             id="path7945"
             d="m 654.21,-437.14 -1.5748,-18 -1.325,2 1.2248,14 z" />
          <path
             style="fill:#808080"
             id="path7949"
             d="m 657.21,-437.14 1.325,-2 -1.2248,-14 -1.675,-2 z" />
          <path
             style="fill:#0e0e0e"
             id="path7951"
             d="m 657.21,-437.14 -1.5748,-18 -1.325,2 1.2248,14 z" />
          <path
             style="fill:#808080"
             id="path7955"
             d="m 660.21,-437.14 1.325,-2 -1.2248,-14 -1.675,-2 z" />
          <path
             style="fill:#0e0e0e"
             id="path7957"
             d="m 660.21,-437.14 -1.5748,-18 -1.325,2 1.2248,14 z" />
          <path
             style="fill:#808080"
             id="path7961"
             d="m 663.21,-437.14 1.325,-2 -1.2248,-14 -1.675,-2 z" />
          <path
             style="fill:#0e0e0e"
             id="path7963"
             d="m 663.21,-437.14 -1.5748,-18 -1.325,2 1.2248,14 z" />
          <path
             style="fill:#808080"
             id="path7967"
             d="m 666.21,-437.14 1.325,-2 -1.2248,-14 -1.675,-2 z" />
          <path
             style="fill:#0e0e0e"
             id="path7969"
             d="m 666.21,-437.14 -1.5748,-18 -1.325,2 1.2248,14 z" />
          <path
             style="fill:#808080"
             id="path7973"
             d="m 669.21,-437.14 1.325,-2 -1.2248,-14 -1.675,-2 z" />
          <path
             style="fill:#0e0e0e"
             id="path7975"
             d="m 669.21,-437.14 -1.5748,-18 -1.325,2 1.2248,14 z" />
          <path
             style="fill:#808080"
             id="path7979"
             d="m 672.21,-437.14 1.325,-2 -1.2248,-14 -1.675,-2 z" />
          <path
             style="fill:#0e0e0e"
             id="path7981"
             d="m 672.21,-437.14 -1.5748,-18 -1.325,2 1.2248,14 z" />
          <path
             style="fill:#808080"
             id="path7985"
             d="m 675.21,-437.14 1.325,-2 -1.2248,-14 -1.675,-2 z" />
          <path
             style="fill:#0e0e0e"
             id="path7987"
             d="m 675.21,-437.14 -1.5748,-18 -1.325,2 1.2248,14 z" />
          <path
             style="fill:#808080"
             id="path7991"
             d="m 678.21,-437.14 1.325,-2 -1.2248,-14 -1.675,-2 z" />
          <path
             style="fill:#0e0e0e"
             id="path7993"
             d="m 678.21,-437.14 -1.5748,-18 -1.325,2 1.2248,14 z" />
          <path
             style="fill:#808080"
             id="path7997"
             d="m 681.21,-437.14 1.325,-2 -1.2248,-14 -1.675,-2 z" />
          <path
             style="fill:#0e0e0e"
             id="path7999"
             d="m 681.21,-437.14 -1.5748,-18 -1.325,2 1.2248,14 z" />
          <path
             style="fill:#808080"
             id="path8003"
             d="m 684.21,-437.14 1.325,-2 -1.2248,-14 -1.675,-2 z" />
          <path
             style="fill:#0e0e0e"
             id="path8005"
             d="m 684.21,-437.14 -1.5748,-18 -1.325,2 1.2248,14 z" />
          <path
             style="fill:#808080"
             id="path8009"
             d="m 687.21,-437.14 1.325,-2 -1.2248,-14 -1.675,-2 z" />
          <path
             style="fill:#0e0e0e"
             id="path8011"
             d="m 687.21,-437.14 -1.5748,-18 -1.325,2 1.2248,14 z" />
          <path
             style="fill:#808080"
             id="path8015"
             d="m 690.21,-437.14 1.325,-2 -1.2248,-14 -1.675,-2 z" />
          <path
             style="fill:#0e0e0e"
             id="path8017"
             d="m 690.21,-437.14 -1.5748,-18 -1.325,2 1.2248,14 z" />
          <path
             style="fill:#808080"
             id="path8021"
             d="m 693.21,-437.14 1.325,-2 -1.2248,-14 -1.675,-2 z" />
          <path
             style="fill:#0e0e0e"
             id="path8023"
             d="m 693.21,-437.14 -1.5748,-18 -1.325,2 1.2248,14 z" />
          <path
             style="fill:#808080"
             id="path8027"
             d="m 696.21,-437.14 1.325,-2 -1.2248,-14 -1.675,-2 z" />
          <path
             style="fill:#0e0e0e"
             id="path8029"
             d="m 696.21,-437.14 -1.5748,-18 -1.325,2 1.2248,14 z" />
          <path
             style="fill:#808080"
             id="path8033"
             d="m 699.21,-437.14 1.325,-2 -1.2248,-14 -1.675,-2 z" />
          <path
             style="fill:#0e0e0e"
             id="path8035"
             d="m 699.21,-437.14 -1.5748,-18 -1.325,2 1.2248,14 z" />
          <path
             style="fill:#808080"
             id="path8039"
             d="m 702.21,-437.14 1.325,-2 -1.2248,-14 -1.675,-2 z" />
          <path
             style="fill:#0e0e0e"
             id="path8041"
             d="m 702.21,-437.14 -1.5748,-18 -1.325,2 1.2248,14 z" />
          <path
             style="fill:#808080"
             id="path8045"
             d="m 705.21,-437.14 1.325,-2 -1.2248,-14 -1.675,-2 z" />
          <path
             style="fill:#0e0e0e"
             id="path8047"
             d="m 705.21,-437.14 -1.5748,-18 -1.325,2 1.2248,14 z" />
          <path
             style="fill:#808080"
             id="path8051"
             d="m 708.21,-437.14 1.325,-2 -1.2248,-14 -1.675,-2 z" />
          <path
             style="fill:#0e0e0e"
             id="path8053"
             d="m 708.21,-437.14 -1.5748,-18 -1.325,2 1.2248,14 z" />
          <path
             style="fill:#808080"
             id="path8057"
             d="m 711.21,-437.14 1.325,-2 -1.2248,-14 -1.675,-2 z" />
          <path
             style="fill:#0e0e0e"
             id="path8059"
             d="m 711.21,-437.14 -1.5748,-18 -1.325,2 1.2248,14 z" />
          <path
             style="fill:#808080"
             id="path8063"
             d="m 714.21,-437.14 1.325,-2 -1.2248,-14 -1.675,-2 z" />
          <path
             style="fill:#0e0e0e"
             id="path8065"
             d="m 714.21,-437.14 -1.5748,-18 -1.325,2 1.2248,14 z" />
          <path
             style="fill:#808080"
             id="path8069"
             d="m 717.21,-437.14 1.325,-2 -1.2248,-14 -1.675,-2 z" />
          <path
             style="fill:#0e0e0e"
             id="path8071"
             d="m 717.21,-437.14 -1.5748,-18 -1.325,2 1.2248,14 z" />
          <path
             style="fill:#808080"
             id="path8075"
             d="m 720.21,-437.14 1.325,-2 -1.2248,-14 -1.675,-2 z" />
          <path
             style="fill:#0e0e0e"
             id="path8077"
             d="m 720.21,-437.14 -1.5748,-18 -1.325,2 1.2248,14 z" />
          <path
             style="fill:#808080"
             id="path8081"
             d="m 723.21,-437.14 1.325,-2 -1.2248,-14 -1.675,-2 z" />
          <path
             style="fill:#0e0e0e"
             id="path8083"
             d="m 723.21,-437.14 -1.5748,-18 -1.325,2 1.2248,14 z" />
          <path
             style="fill:#808080"
             id="path8087"
             d="m 726.21,-437.14 1.325,-2 -1.2248,-14 -1.675,-2 z" />
          <path
             style="fill:#0e0e0e"
             id="path8089"
             d="m 726.21,-437.14 -1.5748,-18 -1.325,2 1.2248,14 z" />
          <path
             style="fill:#808080"
             id="path8093"
             d="m 729.21,-437.14 1.325,-2 -1.2248,-14 -1.675,-2 z" />
          <path
             style="fill:#0e0e0e"
             id="path8095"
             d="m 729.21,-437.14 -1.5748,-18 -1.325,2 1.2248,14 z" />
          <path
             style="fill:#808080"
             id="path8099"
             d="m 732.21,-437.14 1.325,-2 -1.2248,-14 -1.675,-2 z" />
          <path
             style="fill:#0e0e0e"
             id="path8101"
             d="m 732.21,-437.14 -1.5748,-18 -1.325,2 1.2248,14 z" />
          <path
             style="fill:#808080"
             id="path8105"
             d="m 735.21,-437.14 1.325,-2 -1.2248,-14 -1.675,-2 z" />
          <path
             style="fill:#0e0e0e"
             id="path8107"
             d="m 735.21,-437.14 -1.5748,-18 -1.325,2 1.2248,14 z" />
          <path
             style="fill:#808080"
             id="path8111"
             d="m 738.21,-437.14 1.325,-2 -1.2248,-14 -1.675,-2 z" />
          <path
             style="fill:#0e0e0e"
             id="path8113"
             d="m 738.21,-437.14 -1.5748,-18 -1.325,2 1.2248,14 z" />
          <path
             style="fill:#808080"
             id="path8117"
             d="m 741.21,-437.14 1.325,-2 -1.2248,-14 -1.675,-2 z" />
          <path
             style="fill:#0e0e0e"
             id="path8119"
             d="m 741.21,-437.14 -1.5748,-18 -1.325,2 1.2248,14 z" />
          <path
             style="fill:#808080"
             id="path8123"
             d="m 744.21,-437.14 1.325,-2 -1.2248,-14 -1.675,-2 z" />
          <path
             style="fill:#0e0e0e"
             id="path8125"
             d="m 744.21,-437.14 -1.5748,-18 -1.325,2 1.2248,14 z" />
          <path
             style="fill:#808080"
             id="path8129"
             d="m 747.21,-437.14 1.325,-2 -1.2248,-14 -1.675,-2 z" />
          <path
             style="fill:#0e0e0e"
             id="path8131"
             d="m 747.21,-437.14 -1.5748,-18 -1.325,2 1.2248,14 z" />
          <path
             style="fill:#808080"
             id="path8135"
             d="m 750.21,-437.14 1.325,-2 -1.2248,-14 -1.675,-2 z" />
          <path
             style="fill:#0e0e0e"
             id="path8137"
             d="m 750.21,-437.14 -1.5748,-18 -1.325,2 1.2248,14 z" />
          <path
             style="fill:#808080"
             id="path8141"
             d="m 753.21,-437.14 1.325,-2 -1.2248,-14 -1.675,-2 z" />
          <path
             style="fill:#0e0e0e"
             id="path8143"
             d="m 753.21,-437.14 -1.5748,-18 -1.325,2 1.2248,14 z" />
          <path
             style="fill:#808080"
             id="path8147"
             d="m 756.21,-437.14 1.325,-2 -1.2248,-14 -1.675,-2 z" />
          <path
             style="fill:#0e0e0e"
             id="path8149"
             d="m 756.21,-437.14 -1.5748,-18 -1.325,2 1.2248,14 z" />
          <path
             style="fill:#808080"
             id="path8153"
             d="m 759.21,-437.14 1.325,-2 -1.2248,-14 -1.675,-2 z" />
          <path
             style="fill:#0e0e0e"
             id="path8155"
             d="m 759.21,-437.14 -1.5748,-18 -1.325,2 1.2248,14 z" />
          <path
             style="fill:#808080"
             id="path8159"
             d="m 762.21,-437.14 1.325,-2 -1.2248,-14 -1.675,-2 z" />
          <path
             style="fill:#0e0e0e"
             id="path8161"
             d="m 762.21,-437.14 -1.5748,-18 -1.325,2 1.2248,14 z" />
          <path
             style="fill:#808080"
             id="path8165"
             d="m 765.21,-437.14 1.325,-2 -1.2248,-14 -1.675,-2 z" />
          <path
             style="fill:#0e0e0e"
             id="path8167"
             d="m 765.21,-437.14 -1.5748,-18 -1.325,2 1.2248,14 z" />
          <path
             style="fill:#808080"
             id="path8171"
             d="m 768.21,-437.14 1.325,-2 -1.2248,-14 -1.675,-2 z" />
          <path
             style="fill:#0e0e0e"
             id="path8173"
             d="m 768.21,-437.14 -1.5748,-18 -1.325,2 1.2248,14 z" />
          <path
             style="fill:#808080"
             id="path8177"
             d="m 771.21,-437.14 1.325,-2 -1.2248,-14 -1.675,-2 z" />
          <path
             style="fill:#0e0e0e"
             id="path8179"
             d="m 771.21,-437.14 -1.5748,-18 -1.325,2 1.2248,14 z" />
          <path
             style="fill:#808080"
             id="path8183"
             d="m 774.21,-437.14 1.325,-2 -1.2248,-14 -1.675,-2 z" />
          <path
             style="fill:#0e0e0e"
             id="path8185"
             d="m 774.21,-437.14 -1.5748,-18 -1.325,2 1.2248,14 z" />
          <path
             style="fill:#808080"
             id="path8189"
             d="m 777.21,-437.14 1.325,-2 -1.2248,-14 -1.675,-2 z" />
          <path
             style="fill:#0e0e0e"
             id="path8191"
             d="m 777.21,-437.14 -1.5748,-18 -1.325,2 1.2248,14 z" />
          <path
             style="fill:none;stroke:#000000;stroke-width:1px"
             id="path8249"
             d="m 869.21,-437.14 1.325,-2 -1.2248,-14 -1.675,-2 z" />
          <path
             style="fill:none;stroke:#000000;stroke-width:1px"
             id="path8251"
             d="m 869.21,-437.14 -1.5748,-18 -1.325,2 1.2248,14 z" />
          <path
             style="fill:#808080"
             id="path8255"
             d="m 872.21,-437.14 1.325,-2 -1.2248,-14 -1.675,-2 z" />
          <path
             style="fill:#0e0e0e"
             id="path8257"
             d="m 872.21,-437.14 -1.5748,-18 -1.325,2 1.2248,14 z" />
          <path
             style="fill:#808080"
             id="path8261"
             d="m 875.21,-437.14 1.325,-2 -1.2248,-14 -1.675,-2 z" />
          <path
             style="fill:#0e0e0e"
             id="path8263"
             d="m 875.21,-437.14 -1.5748,-18 -1.325,2 1.2248,14 z" />
          <path
             style="fill:#808080"
             id="path8267"
             d="m 878.21,-437.14 1.325,-2 -1.2248,-14 -1.675,-2 z" />
          <path
             style="fill:#0e0e0e"
             id="path8269"
             d="m 878.21,-437.14 -1.5748,-18 -1.325,2 1.2248,14 z" />
          <path
             style="fill:#808080"
             id="path8273"
             d="m 881.21,-437.14 1.325,-2 -1.2248,-14 -1.675,-2 z" />
          <path
             style="fill:#0e0e0e"
             id="path8275"
             d="m 881.21,-437.14 -1.5748,-18 -1.325,2 1.2248,14 z" />
          <path
             style="fill:#808080"
             id="path8279"
             d="m 884.21,-437.14 1.325,-2 -1.2248,-14 -1.675,-2 z" />
          <path
             style="fill:#0e0e0e"
             id="path8281"
             d="m 884.21,-437.14 -1.5748,-18 -1.325,2 1.2248,14 z" />
          <path
             style="fill:#808080"
             id="path8285"
             d="m 887.21,-437.14 1.325,-2 -1.2248,-14 -1.675,-2 z" />
          <path
             style="fill:#0e0e0e"
             id="path8287"
             d="m 887.21,-437.14 -1.5748,-18 -1.325,2 1.2248,14 z" />
          <path
             style="fill:#808080"
             id="path8291"
             d="m 890.21,-437.14 1.325,-2 -1.2248,-14 -1.675,-2 z" />
          <path
             style="fill:#0e0e0e"
             id="path8293"
             d="m 890.21,-437.14 -1.5748,-18 -1.325,2 1.2248,14 z" />
          <path
             style="fill:#808080"
             id="path8297"
             d="m 893.21,-437.14 1.325,-2 -1.2248,-14 -1.675,-2 z" />
          <path
             style="fill:#0e0e0e"
             id="path8299"
             d="m 893.21,-437.14 -1.5748,-18 -1.325,2 1.2248,14 z" />
          <path
             style="fill:url(#linearGradient9477)"
             id="path8311"
             d="m 874.38,-613.19 c -0.34407,0.0529 -0.62508,0.52151 -0.8125,1.5625 l -27.406,152.22 c 2.2092,0.63627 2.9311,7.2939 1.5938,15.125 -1.3646,7.9907 -4.3714,14.146 -6.6875,13.75 -0.0336,-0.006 -0.0608,-0.0228 -0.0937,-0.0313 l -110.12,611.5 -13.188,105 26.562,-101.62 127.21,-621.91 c -0.433,-6.0431 0.567,-15.043 3.4845,-17.034 l 21.989,-107.5 -21.094,-49.344 c -0.4842,-1.1326 -0.99512,-1.7867 -1.4375,-1.7188 z" />
          <path
             style="fill:#808080"
             id="path8325"
             d="m 896.21,-437.14 1.325,-2 -1.2248,-14 -1.675,-2 z" />
          <path
             style="fill:#0e0e0e"
             id="path8327"
             d="m 896.21,-437.14 -1.5748,-18 -1.325,2 1.2248,14 z" />
          <path
             style="fill:#808080"
             id="path8331"
             d="m 899.21,-437.14 1.325,-2 -1.2248,-14 -1.675,-2 z" />
          <path
             style="fill:#0e0e0e"
             id="path8333"
             d="m 899.21,-437.14 -1.5748,-18 -1.325,2 1.2248,14 z" />
          <path
             style="fill:#808080"
             id="path8337"
             d="m 902.21,-437.14 1.325,-2 -1.2248,-14 -1.675,-2 z" />
          <path
             style="fill:#0e0e0e"
             id="path8339"
             d="m 902.21,-437.14 -1.5748,-18 -1.325,2 1.2248,14 z" />
          <path
             style="fill:#808080"
             id="path8343"
             d="m 905.21,-437.14 1.325,-2 -1.2248,-14 -1.675,-2 z" />
          <path
             style="fill:#0e0e0e"
             id="path8345"
             d="m 905.21,-437.14 -1.5748,-18 -1.325,2 1.2248,14 z" />
          <path
             style="fill:#808080"
             id="path8349"
             d="m 908.21,-437.14 1.325,-2 -1.2248,-14 -1.675,-2 z" />
          <path
             style="fill:#0e0e0e"
             id="path8351"
             d="m 908.21,-437.14 -1.5748,-18 -1.325,2 1.2248,14 z" />
          <rect
             style="fill:url(#linearGradient9464)"
             id="rect8359"
             height="5"
             width="28.16"
             y="-762.64001"
             x="882.84003" />
          <rect
             style="fill:url(#linearGradient9461)"
             id="rect8363"
             height="21.273001"
             width="28.16"
             y="-713.64001"
             x="882.84003" />
          <path
             style="fill:url(#linearGradient9458)"
             id="rect8365"
             d="m 883,-757.62 c 0,0 4,12 4,22 0,10 -4,22 -4,22 l 28,0 c 0,0 -4,-12 -4,-22 0,-10 4,-22 4,-22 z" />
          <path
             style="fill:url(#radialGradient9455)"
             id="path8373"
             d="m 896.88,-700.66 c -25.689,0.0494 -49.765,15.925 -59.062,41.469 -11.9,32.696 4.9294,68.85 37.625,80.75 l 1.7188,-4.6875 c -30.101,-10.956 -45.612,-44.243 -34.656,-74.344 10.956,-30.101 44.243,-45.612 74.344,-34.656 30.101,10.956 45.612,44.212 34.656,74.312 -5.8637,16.11 -18.546,28.824 -34.656,34.688 l 1.7188,4.6875 c 17.499,-6.3692 31.256,-20.157 37.625,-37.656 11.9,-32.696 -4.9294,-68.85 -37.625,-80.75 -7.1522,-2.6032 -14.495,-3.8263 -21.688,-3.8125 z" />
          <path
             style="fill:url(#linearGradient9452)"
             id="path9312"
             d="m 780,-479.12 0,66 -3.0802,-13.513 0,-39 z" />
          <path
             style="fill:url(#radialGradient9143)"
             id="path7885"
             transform="translate(-446.58,-999.5)"
             d="m 1365,437.36 c 0,11.874 -9.6259,21.5 -21.5,21.5 -11.8741,0 -21.5,-9.6259 -21.5,-21.5 0,-11.8741 9.6259,-21.5 21.5,-21.5 11.8741,0 21.5,9.6259 21.5,21.5 z" />
          <path
             style="fill:url(#radialGradient9448)"
             id="path7903"
             d="m 624,-463.16 c -9.3929,0 -17,7.6384 -17,17.031 0,9.3929 7.6071,17 17,17 6.1315,0 11.508,-3.259 14.5,-8.125 l 0,-17.781 c -2.9925,-4.866 -8.3685,-8.125 -14.5,-8.125 z" />
          <path
             style="fill:url(#linearGradient9445)"
             id="path7909"
             d="m 908,-455.12 0,18 14.5,0 c 0.18855,-5.2603 -0.0944,-10.767 -3.6875,-18 z" />
          <path
             style="opacity:0.2;fill:#ffffff;filter:url(#filter9269)"
             id="path9257"
             d="m 892.55,-757.62 c 0,0 1.2726,12 1.2726,22 0,10 -1.2726,22 -1.2726,22 l 8.9081,0 c 0,0 -1.2726,-12 -1.2726,-22 0,-10 1.2726,-22 1.2726,-22 z" />
          <path
             style="opacity:0.25;fill:#ffffff;filter:url(#filter9298)"
             id="path9280"
             d="m 801.91,-457.03 0,21.806 3.0938,-4.4603 c 0,0 7,-1.652 13.5,-1.652 6.5,0 13.5,1.652 13.5,1.652 l 0,-12.885 c 0,0 -7,1.652 -13.5,1.652 -6.5,0 -13.5,-1.652 -13.5,-1.652 l -3.0938,-4.4603 z" />
          <rect
             style="fill:#d6d6d6"
             id="rect7908"
             rx="0"
             ry="0"
             height="66.026001"
             width="21.92"
             y="-479.14001"
             x="780" />
          <rect
             style="fill:url(#pattern9439)"
             id="rect7897"
             rx="0"
             ry="0"
             height="66.026001"
             width="21.92"
             y="-479.14001"
             x="780" />
          <rect
             style="fill:url(#linearGradient9436)"
             id="rect7910"
             rx="0"
             ry="0"
             height="66.026001"
             width="21.92"
             y="-479.14001"
             x="780" />
          <rect
             style="fill:url(#linearGradient9433)"
             id="rect7930"
             height="54.5"
             width="30"
             y="-817.14001"
             x="881.91998" />
        </g>
      </g>
      <text
         xml:space="preserve"
         style="font-style:normal;font-variant:normal;font-weight:normal;font-stretch:normal;font-size:64px;line-height:125%;font-family:Norasi;-inkscape-font-specification:Norasi;text-align:start;letter-spacing:0px;word-spacing:0px;writing-mode:lr-tb;text-anchor:start;fill:#000000;fill-opacity:1;stroke:none"
         x="80.372093"
         y="150.82689"
         id="text3222"><tspan
           id="tspan3224"
           x="80.372093"
           y="150.82689">W</tspan></text>
      <text
         xml:space="preserve"
         style="font-style:normal;font-variant:normal;font-weight:normal;font-stretch:normal;font-size:64px;line-height:125%;font-family:Norasi;-inkscape-font-specification:Norasi;text-align:start;letter-spacing:0px;word-spacing:0px;writing-mode:lr-tb;text-anchor:start;fill:#000000;fill-opacity:1;stroke:none"
         x="181.58141"
         y="146.18689"
         id="text3226"><tspan
           id="tspan3228"
           x="181.58141"
           y="146.18689">+</tspan></text>
      <text
         xml:space="preserve"
         style="font-style:normal;font-variant:normal;font-weight:normal;font-stretch:normal;font-size:64px;line-height:125%;font-family:Norasi;-inkscape-font-specification:Norasi;text-align:start;letter-spacing:0px;word-spacing:0px;writing-mode:lr-tb;text-anchor:start;fill:#000000;fill-opacity:1;stroke:none"
         x="267.09515"
         y="150.7309"
         id="text3230"><tspan
           id="tspan3232"
           x="267.09515"
           y="150.7309">J</tspan></text>
    </g>
  </g>
</svg>
